<svg xmlns="http://www.w3.org/2000/svg" viewBox="0 0 312.71 284.47"><title>Recurso 25</title><g id="Capa_2" data-name="Capa 2"><g id="Capa_1-2" data-name="Capa 1"><path d="M125.93,230.13c-.8.88-1.74,2-2.73,3-7,7.29-16.12,11-25.31,14.43a30.24,30.24,0,0,0-10.66,6.28c4,.45,4.59,3.2,5,6.1.68,4.69,1.4,9.37,2.08,14,.75,5.18-2.57,8.56-7.9,8.07-4-.36-5.34-1.8-5.35-5.82q0-7.71,0-15.43c0-3.1.25-6,4-7a1.2,1.2,0,0,0,.59-.41c4.39-5.11,10.5-7.14,16.53-9.41,8-3,15.14-7.35,20.85-13.86,1.32-1.5,1.57-2.55.28-4.3a64,64,0,0,1-12.07-28.55c-.31-2-.93-4-1.4-6l-.78-.08c-.74,1.82-1.61,3.59-2.18,5.46A53.87,53.87,0,0,1,95.06,218c-5,5.39-11,8.59-18.54,9.05-7.35.45-13.36,4.29-18.91,8.79a48,48,0,0,0-12.87,16.64c-.66,1.35-.89,2.23.77,3a3.89,3.89,0,0,1,2.2,4.64c-1.67,6.94-3.32,13.89-5.2,20.78-.82,3-5.2,4.37-8.84,3.12-3.4-1.17-5-3.88-3.93-7.12q3.18-9.47,6.68-18.82c.36-1,1.27-2.25,2.12-2.42,3-.63,4-3,5.11-5.26A46.53,46.53,0,0,1,67.2,227.94c2.47-1.07,5.22-1.48,7.84-2.19,3.55-1,7.2-1.64,10.62-2.93a18.8,18.8,0,0,0,10-8.61c2-3.63,4.28-7.14,6.37-10.75a31.35,31.35,0,0,0,1.44-3.67c-3,2.77-5.39,5.25-8,7.32-9.29,7.2-19.48,11.31-31.64,10.54-10.62-.67-19.66,4.12-27.63,10.75-2.93,2.43-5.26,5.58-7.85,8.42-1.36,1.49-1.41,2.9-.28,4.71,2.16,3.46,2,3.43-1.15,6-3.85,3.15-7.53,6.51-11.32,9.74a41.92,41.92,0,0,1-3.8,2.95A8,8,0,0,1,.22,257a4.14,4.14,0,0,1,.32-3.35A20,20,0,0,1,4.66,249c4-3.21,8.1-6.34,12.37-9.19a9.2,9.2,0,0,1,5.4-1.42c2.13.15,3-.61,4.11-2.25,8.1-11.85,19.27-18.87,33.6-20.45,3.8-.42,7.72.24,11.52-.2C82.06,214.26,90.49,209,98,201.94a42.44,42.44,0,0,0,5.82-6.4c1.37-1.95,2.07-4.35,3.34-7.17-4.59-.36-8.3-.72-12-.93-9.54-.56-19.08-1-28.62-1.62-2.25-.15-3,.32-3.13,2.75-.29,6.14-2,11.82-6.32,16.51-7.75,8.48-20.36,8.29-27.57-.59-6.33-7.81-7.23-17.12-6.73-26.67.18-3.26.92-6.49,1.41-9.74-2.42-.65-4.8-1.2-7.14-1.92a9.37,9.37,0,0,1-6.09-5.43,5.37,5.37,0,0,1-.46-2.77c.47-3,5.56-7.9,8.66-8.23,1.67-.19,1.78-1,1.88-2.37.25-3.4.79-6.79,1.18-10.18a11.91,11.91,0,0,0,.17-3.08c-1.35-9.14.46-17.56,4.56-25.86,7.69-15.58,19.83-26,35.73-32.31A44.85,44.85,0,0,1,73.13,73.6a12.26,12.26,0,0,1,5.11.88,16,16,0,0,0,8.35.06c-.32-2.32-.7-4.11-2.67-5.54-3-2.19-3.79-7-1.89-10.29a3.19,3.19,0,0,1,2.5-1.37c5.19.76,8.88-1.12,12.07-5.28,1.71-2.22,4.83-3.3,5.83-6.35a1.64,1.64,0,0,1,1-.94c3.5-.62,3.08-3.42,3.46-5.89.25-1.64.44-3.71,1.49-4.75,2.41-2.37,5-4.8,8.8-4.89,2.32-.06,4.51,0,4.41,3.39,6.08-5.75,13.1-5.94,20.51-4.59,1.13.21,2.37-.23,3.56-.24q13.71-.06,27.43-.08h2.63A76.38,76.38,0,0,0,172,19.13c-.59-1-2.39-1.39-3.71-1.81s-2.86-.44-4.21-.87c-.53-.18-.85-1-1.26-1.55a6.29,6.29,0,0,1,1.74-1,18.63,18.63,0,0,1,3,0l.27-.61-7.26-6.1c3.83-2.54,4.68,1.4,7.07,1.47l-3.75-5.86c4.21-1.68,4.5,2.91,7.28,3.65A27.76,27.76,0,0,1,170,2.53,8.16,8.16,0,0,1,170.35,0c.66.44,1.56.73,2,1.34,1.09,1.69,1.9,3.54,2.94,5.25,1.48,2.44,2.3,2.44,4.07.25a15.09,15.09,0,0,1,2.28-2.44,1.83,1.83,0,0,1,1.74-.12,1.79,1.79,0,0,1,.37,1.66,33.65,33.65,0,0,1-2.1,4.85,9.78,9.78,0,0,0-.57,8.36c3.19,9.24,3.19,9.12,12.94,10,14.22,1.32,28.44,2.71,42.62,4.36,3.37.39,6.6,1.92,9.88,2.95.83.26,1.62.61,2.9,1.1a35.33,35.33,0,0,0,0-3.75c-.29-2.39-.89-4.76-1-7.15,0-1,1-2.07,1.48-3.11a27.29,27.29,0,0,1,1.93,2.63,13.72,13.72,0,0,1,.8,2.79c1-1.83,1.61-3,2.23-4.27a20.19,20.19,0,0,1,1.59-3.23,11.81,11.81,0,0,1,2.41-1.93L260,22.11a5.37,5.37,0,0,1,1.34-1.54,8.63,8.63,0,0,1,2.38-.55,5.66,5.66,0,0,1,.23,2.12,37,37,0,0,0-1.41,4.63,17.69,17.69,0,0,1,2.6-2.25c.53-.31,1.39-.05,2.1-.05,0,.66.14,1.45-.16,1.93a35.91,35.91,0,0,1-2.84,3.41,7.07,7.07,0,0,1,1.87-.57c.65.05,1.59.13,1.83.54s-.1,1.34-.47,1.83a11,11,0,0,1-1.95,1.77l-6.19,5c-2.72,2.18-2.4,2.05-1.17,5.25,2.35,6.13,4.28,12.43,6.41,18.64,1.49,4.33,3.07,8.62,4.54,12.95.51,1.51,1.35,1.9,2.9,1.62a50.3,50.3,0,0,1,21,1.23c7.35,1.85,15.8,9.89,14.93,18.72-.09.94,1.19,2,1.8,3,.39.65,1,1.35,1,2,0,.4-1,.85-1.67,1.07-.82.28-1.74.27-2.58.54-1.72.56-2.65,1.93-1.93,3.54,2.42,5.4,2.43,11.09,2.34,16.79,0,2.15.42,3.77,2.51,4.69a5.89,5.89,0,0,1,1.33,1c1.35,1.15,2.69,2.68,1.72,4.32a6.22,6.22,0,0,1-3.95,2.89c-2.24.24-2.55,1.17-3.27,3.05-2.62,6.91-.81,14-1.57,21-.72,6.64-2.27,13.06-5.55,18.81-4.61,8.08-17.27,12.66-24.7,2a18.74,18.74,0,0,1-3.62-10.78,13.87,13.87,0,0,0-.06-1.44c0-.13-.16-.25-.4-.61-3.08,2.07-7.15,3-7.8,7.63a3.34,3.34,0,0,1-.87,2c-3.11,2.78-2.53,6.59-2.85,10.08-1,10.49-2,21-5.86,30.89-1.34,3.42-3.87,6.38-5.93,9.5a3,3,0,0,1-1.53,1.12c-7.25,2.14-14.48,4.15-22.17,1.9a14,14,0,0,1-10.31-10.4,70.18,70.18,0,0,1-2.59-25.25c.17-1.78-.28-2.55-2.09-2.58-2.49,0-5-.24-7.46-.3-1.36,0-2.32.46-2.3,2.09,0,2.24-1.25,3.35-3.35,3.67-2.53.38-4.65-.5-5.33-2.66-.59-1.84-1.65-2.19-3.34-2.28-7.78-.39-15.7-.13-23.29-1.54-11.61-2.16-23.33-1.88-35-3-4.07-.4-8.18-.44-12.26-.74-1.55-.12-2.11.43-2.26,2-.46,4.47,1.6,7.77,4.79,10.49,2.31,2,5,3.55,7.23,5.58,5.9,5.27,7.2,11.18,3.91,18.38-1,2.2-.81,3.52.92,5.19a61,61,0,0,1,7,7.91,19.09,19.09,0,0,1,3.68,11c0,1.72.62,2.37,2.34,2.55,3.9.42,4.34,1,5,4.86Q149,266,150.6,275.21a5.75,5.75,0,0,1-3.09,6,9.8,9.8,0,0,1-10.09-.54,4.93,4.93,0,0,1-1.91-3.34c-.54-7-.83-13.95-1.26-20.92a3.54,3.54,0,0,1,2.69-3.79c1.68-.6,2.05-1.6,1.78-3.34a23.23,23.23,0,0,0-6.83-13.75C130,233.73,128,232,125.93,230.13ZM90.22,145.07c0-4.23,0-8.08,0-11.92,0-4.79,1.76-6.89,6.5-6.94a116.07,116.07,0,0,1,12.51.48c8.14.8,16.25,1.86,24.37,2.8a3.2,3.2,0,0,1,3.2,3.21c.56,5.34,1.31,10.66,1.83,16,.16,1.64.55,2.49,2.38,2.45s3.69.21,5.53.33a122.77,122.77,0,0,0,31.9-1.79c3.62-.72,6.48-2.35,8-5.84,2-4.7,3.93-9.46,6-14.16,5.4-12.5,13.76-22.73,24.14-31.39.92-.77,2-1.58,1-2.67A6.89,6.89,0,0,0,214.12,94c-.63-.14-1.43.63-2.19.85s-1.68.32-2.52.48l-.24-.7,3.74-2.6-.22-.7c-.77.2-1.82.16-2.27.65-3.5,3.83-8.29,5.37-12.81,7.35a9.45,9.45,0,0,1-4.48.59,16.64,16.64,0,0,1-3.92-1.41l.26-.56,4.75-1.82c-3.23-1.71-4.9.06-6.63,1.61-3.85,3.44-7.91,2.78-10.47-1.73-1.38-2.42-4.1-3.22-6.34-1.44-1.51,1.19-2.54,3-3.7,4.59a10.28,10.28,0,0,0-.88,2c-2.15-6.9,2-11.32,6.71-15.88l-20.26-2.58.07-.63L174.17,84c-.51-.68-.62-1-.78-1-3.69-.75-7.37-1.71-11.1-2.14-7.16-.82-14.36-1.33-21.54-2l0-.48,28.47,2.33a2.46,2.46,0,0,0-1.68-.8c-25.56-3-51.23-3.71-76.93-3.72a8.48,8.48,0,0,0-3.62,1c-2.62,1.31-5.32,1.77-7.81.2-2.87-1.82-5.79-1.72-8.81-1C60.31,78.63,51.68,83.77,44,90.5c-1,.84-1.42,2.27-2.17,3.39-.28.41-.68.93-1.1,1-3.72.86-4.85,4.25-7.19,6.71,6.58,2.09,8,3.85,8.79,10.29a50.94,50.94,0,0,1-2.83,23.46,35.48,35.48,0,0,1-5.31,9.31c-2,2.62-3.89,2.52-6.4.35a46.07,46.07,0,0,1-3.49-3.75l-.57.11c.12,2.6.13,5.2.4,7.78a6.35,6.35,0,0,0,8.75,5.1c1.54-.58,3.16-.93,5.11-1.48a13.14,13.14,0,0,1,.44-3.19c.81-2.3,1.54-4.79,3-6.69s3.88-3.4,6.78-2.3c7.41,2.79,8.52,4.22,9.21,12.09a30.86,30.86,0,0,1,.11,3.6,7,7,0,0,1-.47,1.63l-.78,0L54,145.3l-.87-.07a7.93,7.93,0,0,0-.88,2.16c-.22,2.47-.31,5-.37,7.44a2.51,2.51,0,0,0,.56,1.22,20.16,20.16,0,0,0,2.22,3.14c.76.78,1.82,1.75,2.79,1.78,9.38.36,18.78.56,28.17.74a4.52,4.52,0,0,0,2.21-.64c1.32-.75,2.55-1.65,3.64-2.38-.4-2.63-.86-5.62-1.33-8.71-3.7,5-5.93,6.09-12.3,6.08H75.71c-4.77-.1-8.77-2.1-11.13-6.09a11.64,11.64,0,0,0-6.43-5.13c-8-3.15-10.34-7.12-9.31-15.71a41.77,41.77,0,0,1,2.45-10.25c4.76-12,12.14-22.33,21-31.72,3.31-3.51,6.8-5.66,11.63-5.75.88,0,1.73-1,2.61-1.54a10.11,10.11,0,0,1,2.6-1.47,50.6,50.6,0,0,1,5.23-.77,6.45,6.45,0,0,0,.52,1.13A10.79,10.79,0,0,0,96.19,80L85.85,86.26l-.38-.59,7.26-5.61c-2.62-.38-4.23-.57-4.94,2-.56,2-2.66,2.53-4.69,1.59a3.45,3.45,0,0,0-1.61-.1c-4.65.28-7.68,3.31-10.1,6.7-4.47,6.26-8.87,12.63-12.69,19.3a39.59,39.59,0,0,0-4.88,25.09c.6,4.71,2.87,7.18,7.24,8.13a2.53,2.53,0,0,0,2.17-1,9.19,9.19,0,0,1,6.22-4.57C77.71,135.1,85.24,137.9,90.22,145.07Zm202.36,1,1,.11a15.47,15.47,0,0,0,.75-2.27c.62-3.54,1-7.12,1.78-10.63,1.58-7.31,2.86-14.59,2.33-22.17-.28-3.91.53-7.94,1.18-11.86.4-2.4,1.72-4.38,5-4-1.24-7-4.2-12.6-10.94-14.9a56.14,56.14,0,0,0-13.87-2.63c-3.44-.26-7,.73-10.48,1.07a3.57,3.57,0,0,1-2.43-.43c-.36-.34.06-1.5.06-2.29a8.92,8.92,0,0,0-.14-2.54q-3.87-12.4-7.88-24.78c-.23-.69-1.11-1.18-1.68-1.76a6.33,6.33,0,0,0-.29,2.31c1.91,6.71,3.91,13.4,5.91,20.09,1.61,5.35,3.26,10.69,4.89,16l-.49.5c-.59-.6-1.57-1.12-1.71-1.81-.63-3.09-2.69-4.86-5.28-6.16A58.41,58.41,0,0,0,238,72.11c-2.42-.17-3.45,1-4.26,3.06a9.34,9.34,0,0,0,1.56.25c10.07-.16,18.78,4.37,28.3,8.43a26,26,0,0,1-4.43-.29,21,21,0,0,1-3.47-1.62c-1.15-.52-2.32-1-3.34-1.44,1.39,1.31,3.36,2.4,4.1,4s.15,3.75.15,5.66l.72.07.78-5,.59.08v3.26a16.46,16.46,0,0,0,3.17,0,13.29,13.29,0,0,0,2.66-1.17l.27.46-4.89,4.33c3.58,6.28,2.07,10.39-4.79,13.19a9.09,9.09,0,0,1,0-1.39,50.5,50.5,0,0,0,1.13-6.14c.26-5-2.68-7.34-7.46-6.06-3.41.91-6.76,2-10.12,3.09-2.3.72-4.58,1.48-7.36,2.38l2.35-3.17c-.94-.67-1.77-1.64-2.8-1.93q-8.55-2.46-17.19-4.57c-.68-.17-1.61.7-2.43,1.09l.26.87a16.42,16.42,0,0,1,2.72.57,6.27,6.27,0,0,1,2.11,1.32c.72.69,1.17,1.66,1.89,2.33,2,1.83,2.09,3.1.14,5.06-2.15,2.16-4.46,4.18-6.51,6.43C202,116.09,195,128.42,191.64,142.77c-.93,4-2.18,7.84-7.06,9.59,4.31,1.82,4.87,5.34,5.17,8.92.28,3.41.4,6.83.6,10.58.79-.3,1.54-.63,2.32-.89a15.24,15.24,0,0,1,4-1.17q17.57-.5,35.13-.76a23.42,23.42,0,0,1,4.16.73l5.61,1c.05-1.24.12-1.87.11-2.5a71.87,71.87,0,0,1,3.59-22.74c1.65-5.21,3.45-10.39,7.27-14.53,2.75-3,6.19-2.74,8.54.53a16.3,16.3,0,0,1,3.45,9.83c0,7.22-.13,14.44-.2,21.66,0,.82,0,1.63,0,2.45l.67.55c7.5-5.07,15-10.16,22.49-15.2a6.38,6.38,0,0,0,3-6.07,30.23,30.23,0,0,1,1.12-8c1.39-5.51,3-10.95,4.58-16.41a7.23,7.23,0,0,1,.42-1l.68.14c-.3,2.14-.43,4.33-.92,6.43-1.18,5-2.63,9.92-3.75,14.93A24.56,24.56,0,0,0,292.58,146ZM193,98.27l.28.69c2.44-.72,4.92-1.3,7.29-2.19,9.34-3.51,15.74-17.5,11.12-26.7C209,64.72,209.1,58.73,211.47,53a10.46,10.46,0,0,0-.55-9.94A2.22,2.22,0,0,0,207.73,42a8.52,8.52,0,0,0-5.51,6.53,47.39,47.39,0,0,0-.4,9.53c.27,6.61-2.72,10.6-9,12.8a117.92,117.92,0,0,0-13.75,6.25c-1.56.78-2.8,2.21-4.15,3.32,1.24,2.09,2.23.9,3.12.24,5-3.74,10.11-7.51,16.35-8.94a10.81,10.81,0,0,0,7.84-6.45c.84-1.81,1.47-3.73,2.2-5.6a3.2,3.2,0,0,1,.26,1.91c-1.3,5.61-4.17,9.88-10.07,11.44a28.85,28.85,0,0,0-11.73,5.89c-4.5,3.88-9,7.81-13.28,11.87a17.57,17.57,0,0,0-2.46,3.8c2.55-.9,4.86-1.84,7.24-2.53,2-.57,3.31.4,4.24,2.23,1.87,3.67,4,4.36,7.62,2.51,1.2-.61,2.17-1.65,3.36-2.3,1.37-.75,3-2,4.28-1.81,3.86.54,4.8-1.89,5.67-4.64a24.52,24.52,0,0,0,1.19-4.64,51.51,51.51,0,0,1,4.87-16.77,18.71,18.71,0,0,0,1.05-13.41,6.86,6.86,0,0,1-.1-1.37,6.69,6.69,0,0,1,1.45,3.08c1,4.66.05,9.1-1.75,13.39a39.08,39.08,0,0,0-2.94,11.57C202.63,87.41,200.47,94.41,193,98.27ZM109.51,72l0-.83c1.65-.28,3.29-.67,5-.83,5.17-.49,10.5-1.87,15.49-1.1,7.66,1.18,15.09,3.86,22.62,5.9l-.06.64-8.64-.73-.13.63a5.16,5.16,0,0,0,1.54.66c4.8.41,9.59.88,14.4,1.07,4.19.16,5.21-1.08,5-5.32,0-.81-.12-1.61-.13-2.41a2.38,2.38,0,0,0-2.25-2.62c-4.23-.63-8.43-.73-12.56-2.6-3.22-1.46-7.22-1.37-10.89-1.6-6.45-.41-12.75-1.23-18.83-3.58a16.36,16.36,0,0,0-10.88-.66c-1.89.59-4.36,1.62-5.09,3.16-1.86,4-5.24,7.43-4.89,12.3,0,0-.25.11-.5.21-1.91-3.42-.8-6.4,1.59-9.23l-.81-.56-5.56,5.67-.63-.49,4.33-6.25-2.48-.39.1-.85c1.57.14,3.14.38,4.71.37.78,0,2-.26,2.25-.77a9.93,9.93,0,0,1,6.76-6,26.29,26.29,0,0,0-2.1-3c-2.62-2.73-5.29-2.54-7.61.4-.75.94-1.71,1.72-2.39,2.7-3,4.27-6,8.49-8.73,12.9-1.43,2.32-.21,5.38,2,5.63,3.19.35,6.4.7,9.6.77,12.44.27,24.88.43,37.31.62.72,0,1.44,0,2.81,0-6.76-4-13.12-5.83-20.22-4a23.16,23.16,0,0,1-5.26.56A43.73,43.73,0,0,1,109.51,72Zm76.88-40.91C188.54,38,190.55,44.5,192.62,51c.63,2,2.4,1.32,3.7,1.2.57-.06,1.21-1.09,1.54-1.8,1.23-2.75,2-5.73,3.59-8.28,1.86-3.09,9-5.48,12.07-4.55,5,1.48,10.77,10.58,9.46,15.64a52.88,52.88,0,0,1-3.93,9.5c-2.61,5.43-2.66,5.2,3.38,5.74,2.72.24,4.27-.7,5.84-2.69C234,58.42,239.89,51.2,245.7,43.93a25,25,0,0,0,1.53-2.54C227.58,33.4,206.91,33.67,186.39,31.13ZM113,187.05c3,.23,5.79.47,8.56.66q20.42,1.46,40.82,2.87c7.92.53,15.85,1,23.78,1.34a7.67,7.67,0,0,0,4.28-1.53,4.82,4.82,0,0,1,6.34.14,6.12,6.12,0,0,0,3.19,1.33c4.57.17,9.15.18,13.72.13,6.39-.08,12.69-.58,18-4.75,2.33-1.83,4.79-3.5,7.07-5.4.65-.54.87-1.62,1.53-3-5.48,1.67-10.39,2.56-14.73,4.63A33.45,33.45,0,0,1,208,186.37c-11.59-.92-23.17-2-34.74-3.18-12.93-1.3-25.85-2.72-38.77-4.13a3.06,3.06,0,0,0-3.2,1.37,9.46,9.46,0,0,1-4,2.93,14.53,14.53,0,0,1-13.19-.86C113.74,184,113.4,185.35,113,187.05Zm137.56-32.44c-2.77,2-4.81,3.36-5,6.42a63.86,63.86,0,0,1-1.32,8.08,3.45,3.45,0,0,0,1.27,3.82c1.45,1.1,2.52,2.59,1.61,4.35-.59,1.15-1.93,1.93-2.94,2.88l-.88-.43a65.12,65.12,0,0,1-2,20.87,2.73,2.73,0,0,0,.08.9c2,.71,2.84,1.81,2.11,3.27-.35.68-1.38,1-2.68,1.92-.86,5.11.05,13.07,2.26,17.44,1.07,2.11,1.84,2.4,3.25.52a20.73,20.73,0,0,0,3.56-6.7,213.5,213.5,0,0,0,7.35-42.14c.37-5.84.91-11.7.8-17.53-.09-5-.84-10-3.68-14.29a23.33,23.33,0,0,0-2.4-2.69l-.83.18c-1.58,4.92-3.15,9.83-4.93,15.39l1.17-.84,3.16-2.26c.87,1.26,2.13,2.41,2.53,3.8a79.48,79.48,0,0,1,1.78,9,17.7,17.7,0,0,1-.6,9.24L247.64,161l.29-.37,3.83,2.37C251.31,160,251,157.55,250.52,154.61ZM133.8,136.37c0-4.44,0-4.51-4.43-5-9.89-1-19.79-1.87-29.69-2.81-3.89-.37-6.05,1.56-6,5.59.19,7,.56,13.93.72,20.9,0,2.22,1,3.2,3.12,3.3,11,.48,22.08,1,33.12,1.45a2.68,2.68,0,0,0,2.06-1.2C133.38,157.25,133.8,140.14,133.8,136.37Zm49.79-84.95c-2.08-6.21-4.2-12.4-6.2-18.63-.54-1.67-1.51-2.18-3.19-2.21-6.34-.12-12.68-.38-19-.53-2.83-.07-5.67,0-8.29,0,1,1.63,2.39,3.13,2.73,4.85a66.19,66.19,0,0,1,1,10.06c.14,2.63-1.12,3.54-4.18,2.86.31,2.38.6,4.57.89,6.77h.7l.95-1.48.59.12c-.29,2-.58,4-.91,6.23.71-.74,1.3-1.34,1.86-2a15.39,15.39,0,0,1,18.84-3.62,8.19,8.19,0,0,0,2,.84c4.2.73,6.93,3.72,8.88,6.92,1.56,2.56,3.07,2.77,5.51,2.19.25-2-1.33-1.88-2.42-2.31-1.85-.71-4-1.1-4.22-3.66C178.79,54.57,180.09,52.55,183.59,51.42ZM218.31,182c9.2.26,16.59-2.55,23.72-6.21.65-.33,1-1.3,1.44-2a8.12,8.12,0,0,0-2-1.26c-1.85-.47-3.75-.75-5.63-1.09s-3.62-1.13-5.29-.85c-10.38,1.77-20.82,1.11-31.25,1-2.15,0-4.3-.45-6.08,1.34-.38.38-1.21.27-1.81.47-1.71.55-3.61.82-5.07,1.77-3.88,2.53-4.43,2.53-8.37,0a16.15,16.15,0,0,0-5.25-1.88c-1.71-.37-3.52-.21-5.27-.41q-14.34-1.61-28.68-3.29c-2.16-.25-3.81-1-3.72-3.71a2.75,2.75,0,0,0-1.86-2,3.55,3.55,0,0,0-2.66,1.4,13.86,13.86,0,0,0-1.61,4c-.15.51-.07,1.47.26,1.69,1.56,1.05,3.16,2.52,4.88,2.74,6,.76,12,1,18,1.55q21.81,2.06,43.61,4.26C203.52,180.29,211.4,181.2,218.31,182Zm-81.08-13.8c12.14,1.52,24.43,3,36.87,3.09,1.43-6.58,3.32-12.64,7.52-17.62-7.2.5-14.22,1.37-21.24,1.36s-14.16-.89-21.42-1.41c-.61,3.29.47,7.47-3.5,9.34ZM249.88,25a12.66,12.66,0,0,0,.52,7.65,6.71,6.71,0,0,1-.41,6,90.24,90.24,0,0,1-5.66,8.92c-3.7,4.73-7.74,9.21-11.62,13.8s-7.77,9.38-11.8,13.95a7.65,7.65,0,0,0-1.65,8c1,2.17,3.12,1.64,4.82,1.94.6.1,1.59-.71,2-1.36,2.63-3.84,4.79-8.05,7.77-11.58a162.76,162.76,0,0,0,18.48-26.66A29.8,29.8,0,0,1,263,34.11a42.47,42.47,0,0,0,4.32-3.43l-.35-.49-5.52,2.93-.43-.64,4.94-6.58-.48-.45-6,6-.6-.37L263.13,21l-.64-.35-5.4,9.2-.77-.43,2.1-8-.7-.23q-2.28,5-4.54,10l-.86,0ZM34.08,156c-2.37,0-4,.08-5.69,0-2.31-.14-4.56-.7-5.81-2.86a3.09,3.09,0,0,0-4.5-1.33A13.84,13.84,0,0,0,14,155c-1.75,2-1.49,3.92.8,5.25a18,18,0,0,0,6.2,2.41c6.74,1,13.52,1.85,20.31,2.51,14,1.36,28,2.54,42,3.85,4.37.41,8.72,1,13.06,1.49v-5.71l-.55.42-4.29-4.05c-.18.13-.95.39-1.1.85-.71,2.16-2.27,2.12-4,1.85-.87-.13-1.76-.11-2.64-.16-9.06-.57-18.12-1.08-27.16-1.78-1-.08-2-1.23-3-1.82-.52-.31-1.25-.84-1.66-.68a15.78,15.78,0,0,0-4.68,2.33,6,6,0,0,1-7,.81c-2.91-1.34-5.63-3.11-8.79-4.9ZM172.93,8.47l-1,.59L166,3.29l-.38.34,4.59,6.58-.75.77L163,7.07A64.69,64.69,0,0,0,168.15,12a8.11,8.11,0,0,1,1.24,2.13,18.93,18.93,0,0,1-2.16.63,22.84,22.84,0,0,1-2.34.2l0,.82a18.69,18.69,0,0,1,3.92.46,11.18,11.18,0,0,1,4,2.11,8.51,8.51,0,0,1,1.85,3.34c2.91,8.06,6,16.08,8.54,24.25,1.61,5.1,2.49,10.43,3.63,15.67.61,2.8,1.08,5.63,1.69,8.91,2.57-.8,4.76-1.45,6.93-2.18,1.33-.45,1.57-1.3,1-2.63-1-2.35-2-4.74-2.79-7.18-2.8-8.53-5.39-17.13-8.32-25.61-1.72-5-4.05-9.77-5.89-14.72a8.26,8.26,0,0,1,1.07-7.8,40.66,40.66,0,0,0,2.37-4.71l-.77-.48c-.73.87-1.5,1.71-2.18,2.62-1.54,2.07-3.17,2.26-5,.34a14.63,14.63,0,0,1-1.92-3c-.61-1.09-1.12-2.24-1.68-3.36l-.46.18C171.58,4.13,172.26,6.3,172.93,8.47Zm63.73,62.38c9.81.52,18.71,2.51,26.88,7.16.14-.43.26-.6.22-.72-2.81-9.62-5.62-19.23-8.51-28.83-.19-.64-1-1.48-1.53-1.52s-1.24.77-1.65,1.36q-6.4,9.3-12.74,18.63ZM57.33,178.74c1.8,0,3.31,0,4.81,0,3.44.1,6.88.17,10.31.39,6.55.41,13.1.9,19.64,1.39,1.35.1,2.31-.13,2.59-1.73a10.93,10.93,0,0,1,1.19-2.5L53.08,172.6l.78,1.61c-5.39-1.11-6.81-.94-8.75,1.21,7,.31,9.3,5.09,10.24,11.16C58.31,184.18,57.44,181.26,57.33,178.74Zm197.77-89c1.3-5.42,1.16-6.65-3.45-8-6.48-1.83-13.23-2.7-19.88-3.95a1,1,0,0,0-.8.39,38.27,38.27,0,0,0-3.29,5c-1,2-.37,3,1.85,3.28C238,87.63,246.48,88.68,255.1,89.77ZM133,175.33c-.92,2.15.22,2.45,1.69,2.6,8,.79,16,1.7,24,2.42q27.33,2.43,54.68,4.66c2.19.18,4.44-.4,6.66-.63l-.08-.61ZM82.91,139.69c.74,2.71.52,5-1.67,6.53a7.14,7.14,0,0,1-7.13.52c-4.42-1.85-4.89-5-1.3-8.1,0,0,0-.22,0-.49-1,.27-1.91.45-2.8.79-4.4,1.67-5.56,4.34-3.83,8.71,2,5,6.68,7.5,13.21,7a6.29,6.29,0,0,0,5.49-3.36,22.28,22.28,0,0,0,2-6.09C87.41,142,86.5,140.92,82.91,139.69ZM138,271.85h9.87c-.88-5.51-1.59-11.06-2.8-16.5-.17-.79-2.68-1.57-4-1.48-1.68.11-3.29,1.15-4.92,1.82-.1.05-.1.46-.07.69C136.7,261.61,137.36,266.84,138,271.85ZM12.63,255.44c4.38-3.22,9.09-6.67,13.78-10.16,1.31-1,.61-2-.13-2.88a6.34,6.34,0,0,0-8.44-1.28c-4.21,2.93-8.28,6.06-12.39,9.13a1.1,1.1,0,0,0-.3.52ZM39.05,156,37.19,155l-.62.27a8.42,8.42,0,0,0,.77,2.52,7.45,7.45,0,0,0,2.42,2.29c1,.55,2.44,1.18,3.29.83a4,4,0,0,0,1.8-2.9c.3-3.1.16-6.24.33-9.36a31.55,31.55,0,0,1,.72-4.05l.87.08V158.9c3-.55,4.22-2.4,4-4.79a42.75,42.75,0,0,1,.25-7.41c.15-1.44.71-2.67-1-3.76s-3.49-1.92-5.07-.58a14.08,14.08,0,0,0-4,5.11C40,150.1,39.71,153.05,39.05,156Zm149.19,7.58a53.33,53.33,0,0,0-1.26-6.09c-.36-1.12-1.38-2.83-2.11-2.84a4.5,4.5,0,0,0-3.12,2.08,58.88,58.88,0,0,0-4.09,8.13c-1.52,3.65-.56,6.39,2.56,8.74a3.07,3.07,0,0,0,3.95.1C187.88,171.38,187.44,167.42,188.24,163.62Zm-89.36,10-.31-1a16.44,16.44,0,0,0-2.25-.56c-16.67-1.75-33.34-3.52-50-5.13-1.64-.16-3.37.72-5.06,1.12l.29,1.31L48.72,168,48,170.22c1.68,1.34,2.63.51,3.35-.5a5.53,5.53,0,0,0,2.51,1.16c4.62.48,9.25.85,13.87,1.28,9.5.89,19,1.84,28.51,2.64C97.1,174.87,98,174,98.88,173.62ZM116.42,38l-.59-.2c.56-2.36,1.13-4.73,1.69-7.11-2.08-.22-8.43,3.17-9.07,4.72a2.74,2.74,0,0,0-.09.7l-.53,6.71,6.91,4.86c1.81-2.57,4.26-5,5.4-8s.55-6.29-.12-9.4l-1-.18C118.19,32.8,117.3,35.42,116.42,38Zm9.51,187.63c2.95-5,3-12-.4-15.28s-7.34-6.15-11.25-9.37C114.54,206.94,121.09,220.65,125.93,225.66Zm-84.33,49c1.24-4.43,2.57-9.1,3.86-13.78.69-2.52,0-3.55-2.57-4a4.75,4.75,0,0,0-5.41,3.27c-.9,2.73-1.72,5.49-2.58,8.24l-1.52,4.78Zm41.09-1.26,9.18-.82c-.64-4.7-1.21-9.7-2-14.66-.33-1.91-2.14-2.26-3.81-2.17s-3.26.82-3.3,2.81C82.63,263.63,82.69,268.68,82.69,273.43Zm16.44-87.36c-1.63-1.1-3-2.08-4.47-3a3.54,3.54,0,0,0-1.47-.63c-3.67-.32-7.34-.65-11-.84-3.23-.17-6.37.48-9.73-.42-3.54-.95-7.48-.48-11.25-.49a2.3,2.3,0,0,0-1.81,1.15c-.37,1.31.54,1.76,1.79,1.82,3.76.19,7.52.43,11.28.67ZM179,69.14l.67,0c.11-1.56.89-3.54.21-4.61A37.77,37.77,0,0,0,173.64,57c-1.82-1.71-2.78-1-3.1,1.47A17.64,17.64,0,0,1,169.36,62l-.85-.16-2-5.66-.9.2c0,2.09,0,4.18,0,6.28,0,2.66.83,3.25,3.48,3.05C172.86,65.41,176.52,65.52,179,69.14ZM164.38,55.28C158.72,54.13,152,58,151.32,62.79c3.79,3.56,8.72,1.15,13.06,3ZM40.24,192.21a7.73,7.73,0,0,0,9.57-.23c3.3-2.64,4.43-6.9,2.73-10.31a7.72,7.72,0,0,0-8.74-4.33c-4.26.92-6,2.79-6.09,6.68,1-.7,2.6-1.2,2.72-1.93.41-2.61,2.2-2.88,4.15-2.94a5.65,5.65,0,0,1,5,2.81,4.56,4.56,0,0,1-2.49,6.82A71.74,71.74,0,0,0,40.24,192.21Zm-1.74-66a51.31,51.31,0,0,0,.22-5.85c0-.7-.86-1.93-1.35-1.95-3.33-.08-6.65.06-10,.22a1.45,1.45,0,0,0-1,.93c-.43,2-.75,4-1.09,5.89Zm256.66,24.28c3.32,3.54,3.41,3.57,5.25,1.18-2.59-1.78-2.9-4.28-.76-7.67l1.38,2.79c1.32-4.39-.15-11.24-2.81-13.26-.15.39-.3.75-.41,1.13-1.56,5.12-.76,10.86-4,15.57-.22.32-.09.94,0,1.4.52,2.51,1,5,1.63,7.52a17.65,17.65,0,0,0,1.13,2.71h.66c.8-1.84,1.61-3.68,2.52-5.75-1.69.2-2,3.23-3.72,1.3-.53-.61.09-2.21.19-3.36l.45.06ZM119.63,43.07c-4.14,3.26-4.26,7.72-5.1,11.94a10.08,10.08,0,0,1-1-3c-.39-2.37-1.17-4.52-3.35-5.84-1.68-1-3.59-1.42-5.21-.25-.77.56-.88,2-1.44,3.48,4.24-.19,6.85,1.26,7.63,5.2a2,2,0,0,0,1.3,1.12c3.46.8,4.22.34,5.44-3a12.76,12.76,0,0,1,1-2.43C120.37,48.12,120.09,45.88,119.63,43.07Zm-81,69.44a30.43,30.43,0,0,0-.9-4.18c-1.19-3.39-3.67-3.93-5.85-1.09A41.44,41.44,0,0,0,28,114.1c-.72,1.43-.17,2.35,1.52,2.28,1.91-.08,3.83-.24,5.74-.36C38.24,115.83,38.47,115.59,38.6,112.51Zm-7.8,22.41c5.62-.29,5.62-.29,5.61-3.79,0-3.95,0-3.95-4.07-4.06-1.12,0-2.25,0-3.37-.13-2.26-.25-3.23.93-3.53,3-.56,3.76.65,5.16,4.4,5.06C30.16,135,30.48,134.94,30.8,134.92ZM292.61,151.6c-4.08,2.91-4.47,3.77-3.91,8.21.27,2.15.41,4.31.77,6.44a17.67,17.67,0,0,0,1.19,3.89,1.61,1.61,0,0,0,1.5.51,1.8,1.8,0,0,0,.7-1.47,2.4,2.4,0,0,0-.79-1.7c-2.55-1.61-1-4.31-1.68-6.48,1.08.82,2.25,1.94,2.14,2.91-.24,2.14,1,2.55,2.54,3.17l1.68-3.35C291.86,160.87,293.71,155.86,292.61,151.6ZM40,191.67a65.64,65.64,0,0,0,5.75-4.43,6.2,6.2,0,0,0,1.66-3.51,3,3,0,0,0-1.31-2.49,3.46,3.46,0,0,0-2.85.31,50.44,50.44,0,0,0-4.63,3.4c-1.3,1-2.6,1.94-3.56,2.64ZM143.06,280.3a6.69,6.69,0,0,0,2.73-.61c1.13-.81,2.58-2,2.73-3.14.24-1.79-1.26-3.14-3.13-3.33a13.41,13.41,0,0,0-4.73.28c-1.85.48-3.72,1.87-3.27,3.81.26,1.15,2.37,1.93,3.72,2.76C141.54,280.34,142.2,280.22,143.06,280.3ZM213.53,84.89l-.24,1.24,2.11.58c5.62,1.56,11.31,2.89,16.82,4.76,3.57,1.21,5.09,1.24,8.22-1.8Zm49.55,84.8.83.68c9.72-7,20.87-12,28.42-21.9A145,145,0,0,1,265,166.7C264.11,167.16,263.72,168.67,263.08,169.69ZM40.47,166.37c-3.71-.44-7.21-.75-10.67-1.28-6.29-1-13.17-.26-18.09-5.92.54,1.32,1.15,2.76,2.23,3.33A34.7,34.7,0,0,0,22.26,166c4.83,1.12,9.8,1.59,14.69,2.46C38.66,168.79,39.69,168.23,40.47,166.37ZM144.1,61.11c3.77-2,4-3.12,2.07-6.17a11.27,11.27,0,0,1-1-3.64,19.9,19.9,0,0,1-.2-2.44l-.61-.15c-2.45,3.75-2.48,9.17-7.69,11.26l5.18,1.58,1.59-4.35.67.16ZM26,136.53c.86,2.32,1.41,4.17,2.23,5.9,1,2.18,2.91,2.34,4.3.36a39.32,39.32,0,0,0,2.81-5c.19-.37,0-.95,0-1.22ZM166.09,74.65c0,4.14,0,4.16,4.43,4.15,1.84,0,3.86-1.49,3.87-2.85,0-1.77-3.72-4.47-6.13-4.62C165.3,71.15,166.27,73.28,166.09,74.65ZM36.15,282.18c2.62.15,4.68-1.28,4.78-3.33s-1.85-3.43-4.64-3.56c-2.25-.11-4.62,1.52-4.74,3.25S33.44,282,36.15,282.18ZM215.25,67.5c-2.08.51-2.64,1.31-1.83,3.54a17.68,17.68,0,0,1,.48,10.13,15.82,15.82,0,0,0-.17,2.25c2.21.93,3.39.76,3.67-1.87.24-2.38.4-4.38-.93-6.72C215.34,72.86,215.62,70.08,215.25,67.5ZM176.38,69l.51-.53c-2.39-1.52-5-2.29-7.81-1.3-.81.28-1.23,1.67-2.17,3,3.52-.14,5.7.93,7.37,3.13,1,1.36,1.9.61,2.1-.42ZM85.57,67.94c1.77-3.25,3.34-6.15,5.06-9.33a43,43,0,0,0-5.15.06c-.74.1-2,.87-2,1.28C83.62,62.65,83.61,65.47,85.57,67.94Zm2,212a10.55,10.55,0,0,0,2.9-1A3.27,3.27,0,0,0,92,276.6a2.85,2.85,0,0,0-2-1.86,13.54,13.54,0,0,0-5,.81c-.75.27-1.77,1.72-1.58,2.24.3.84,1.47,1.42,2.35,2C86,280,86.6,279.88,87.57,280ZM8.26,260c.37-.46,1.45-1.18,1.48-1.95.08-2.23-3.36-5-5.58-4.7-1.71.2-2.7,1.62-1.95,3C3.34,258.43,5.13,259.69,8.26,260Zm109.17-93.44-9-.63-.43.49c1.67,1.65,1,5.07,4.15,5.44C115.52,172.21,115.31,168.64,117.43,166.52ZM193.6,54.27c1.08,2.25.57,5.49,4.42,5.59.34,0,.94.54.93.82A1.7,1.7,0,0,1,198.3,62c-2.31,1-1.12,2.28-.56,3.63a4.25,4.25,0,0,0,2.06-5.93,14.39,14.39,0,0,1-1.49-3C197.32,53.59,197.33,53.55,193.6,54.27Zm2.69,138.47c-.53-.45-1.33-1.62-2.41-2-1.3-.44-3.33,2.26-3.19,4.12.12,1.47.76,2.65,2.49,2.69C195.12,197.6,196.31,196,196.29,192.74Zm-17.63-118c2.74-1.34,5-2.35,7.15-3.54a2.21,2.21,0,0,0,1-1.75A2.39,2.39,0,0,0,185.3,68c-3-.72-3.59-.33-4.85,2.58C179.93,71.8,179.4,73,178.66,74.73Zm122,32.23.79.11c.66-3.86,3.51-5.5,7.56-6.69-1.69-1-2.74-1.5-3.69-2.17-1.67-1.17-2.85-.51-3.28,1.13C301.42,101.83,301.13,104.41,300.69,107Zm-44.36,27.56-.77-.13-3,4.54,5.43,4.26C257.38,139.9,256.86,137.21,256.33,134.52ZM34.77,195.39C36,193.8,37.1,193,37.23,192a2.31,2.31,0,0,0-2.41-2.68,2.17,2.17,0,0,0-2.38,2.62C32.58,192.92,33.63,193.77,34.77,195.39ZM185.11,59.11c-.52-2.29.58-4.87-2-5.48-2.27-.55-2.26,1.71-2.28,3.26C180.8,59.93,183.14,58.56,185.11,59.11Zm116.62,62.1-.79.15c-.92,3.63-2,7.27,1.75,10.91C302.34,128.23,302,124.72,301.73,121.21Zm-3,45.77-.58-.27c-2.09,2.62-2.47,7.27-7.63,6.12,1.29,2.59,4.22,2.79,5.51.47A62.18,62.18,0,0,0,298.7,167ZM106.52,163v.59c4.45.42,8.9,1.12,13.38.39l0-1Zm2,13.86c-3-.57-5.21-1.11-6.79,1.15a5.64,5.64,0,0,0-.42,2.12c.75,0,1.65.36,2.22.05C105.11,179.37,106.54,178.26,108.54,176.9ZM232.07,76.83l-.08.63,15.81,1.61C242.67,77.46,237.52,75.9,232.07,76.83ZM114.66,175.36l.24.69,8.27.71c-1.77-3-4.43-2.29-6.64-2.57C116,174.12,115.29,175,114.66,175.36Zm-12-9.15-1,.09c-.38.63-1,1.24-1.1,1.91-.23,2,1.16,2.65,2.79,2.76.41,0,1.33-.95,1.25-1.15A34.64,34.64,0,0,0,102.66,166.21ZM217.25,69.57c3.22,1.72,6,1.63,7-.21C221.8,69.59,219.52,68.5,217.25,69.57ZM75.59,137.82l-.71.51a10.75,10.75,0,0,0,.58,2.88c.12.26,1.5.22,2-.12s.78-1.53.56-1.74A11.16,11.16,0,0,0,75.59,137.82Zm48.57,39.91-6.74-.32C120.07,179.88,122.17,180.08,124.16,177.73ZM94.34,160l-.5.52c.74.9,1.32,2.19,2.26,2.56.59.23,1.72-.95,3.16-1.83Zm29-102.53L122.8,52C120.09,55.81,120.15,56.53,123.38,57.46ZM74.1,142.92c.79,2.68,1.83,2.91,4.08.9Zm34.24,32.34.29-.75-3-1.32-.83,2.07Zm-1.84,9.28-4.27,1.15C105.25,187.2,106.53,186.86,106.5,184.54Zm110.92-113-.15,1.17,4.63.28.09-.92Z"></path><path d="M122.82,127.48c-1.86-.81-4.32-1.45-6.25-2.82-2.76-2-2.3-5.61.6-7.42,5.23-3.26,8.64-3,12.51.85,2.86,2.86,2.33,6.3-1.36,7.92A39.44,39.44,0,0,1,122.82,127.48Zm1.75-9.45.71-.18c.41.86,1.36,2,1.11,2.53a4.1,4.1,0,0,1-2.48,1.89c-2.61.71-4.41-.45-5.16-3.26-2.23,3.27-1.47,5.49,2,6a13.36,13.36,0,0,0,5-.35c1.81-.44,3.2-1.58,3-3.76a4.65,4.65,0,0,0-4-3.89,4.25,4.25,0,0,0-2.37.17,4,4,0,0,0-1.71,2.07c-.14.45.75,1.76,1,1.72a5.17,5.17,0,0,0,2.41-1.19C124.4,119.42,124.4,118.62,124.57,118Z"></path><path d="M41.46,133.31c-.06-.39-.21-.73-.11-.83,3.54-3.71,3.11-9.12,5.65-13.26a4.85,4.85,0,0,0,.74-2c.38-4.2,2.54-8.19,1.57-12.51-.26-1.16-.26-3.07-2.64-2.6l1.2,3.61c-1.57-1.93-2.89-4-6.22-1.93,1.21-1.61,5.33-3.45,6.35-2.9A4.29,4.29,0,0,1,49.74,103c1.73,4.43,1.39,9,.59,13.53-1.08,6.19-4.62,11.2-8.06,16.24C42.12,133,41.8,133.08,41.46,133.31Z"></path><path d="M141.12,81.32l-43.6-.79C112.54,78.33,126.83,80.37,141.12,81.32Z"></path><path d="M218.79,135.16c0,9-1.65,16.35-5.85,23.09-2.62,4.19-7.58,4.32-10.59.29-2.79-3.74-3.29-8.1-3.45-12.53a44.38,44.38,0,0,1,3.9-20.83,22.05,22.05,0,0,1,3.91-5.7c3.11-3.26,7.82-2.2,9.55,2A34,34,0,0,1,218.79,135.16Zm-9-2.82c1.69-.38,3.42-.66,5.06-1.19a2,2,0,0,0,1.22-1.5,28.09,28.09,0,0,0-1-7.31,5.13,5.13,0,0,0-3.49-3c-1.27-.11-3,1.24-4,2.39s-1.39,2.85-2,4.32C203.49,131,204.32,132.2,209.77,132.34Zm-.57,9.71h2.4c3.07,0,3.93-.84,4.2-4,.07-.72,0-1.44.09-2.16a2.11,2.11,0,0,0-2.26-2.5c-2.71,0-5.43,0-8.14.14-1.5,0-2.21.81-2.46,2.36-.81,5.14,0,6.13,5.21,6.12ZM208,143.16v-.08c-1,0-2.08,0-3.12,0-1.59,0-2.79.51-2.67,2.28s-1.15,4.46,1.88,4.88a33.34,33.34,0,0,0,7.86,0c1.66-.17,2.92-2.65,2.68-4.58s-1.62-2.4-3.27-2.46C210.25,143.13,209.13,143.16,208,143.16Zm.88,8.41c-1.68.19-2.71.38-3.74.39-2.48,0-2.71,1.42-1.73,3.11s2,3.64,3.44,4.2c2.16.81,2.85-1.8,3.78-3.25.6-.93,1.32-2.5.93-3.16C211.07,152,209.51,151.83,208.89,151.57Z"></path><path d="M237,102.32a21.74,21.74,0,0,0,2.42-1.44c2.77-2.18,5.47-4.44,8.26-6.6,2.18-1.69,3.67-1.4,5.5,1-3,3-6.06,6.07-9,9.16-.88.91-1.52,2.07-2.41,3a5.2,5.2,0,0,1-2.47,1.69c-5.85.87-10.65,3.81-15.22,7.28a2.94,2.94,0,0,1-2.09.62c.54-.72.93-1.68,1.64-2.13,3.29-2.11,6.47-4.61,10.07-5.94s5.36-3.74,7.84-6.57l-3.71,1Z"></path><path d="M290.48,82.47l-10.84,8c3.76-.53,6.4-3.57,10.08-4l.36.7L272.56,97.5l-.51-.63c2-2,3.89-4,5.91-6s4.24-3.86,6.32-5.73c-2.69-2.86-5,.13-7.65,0a83.82,83.82,0,0,1,9.23-4.53C286.87,80.29,288.51,81.65,290.48,82.47Z"></path><path d="M224.5,137.27c-2.62,3.57-1.77,7.51-1.58,11.41.25,5.11.36,10.24.51,15.36a3.67,3.67,0,0,1-.59,2.17,6,6,0,0,1-.43-1.3c-.6-6.7-1.33-13.39-1.68-20.1-.1-2.11.72-4.31,1.35-6.4.19-.65,1.15-1.08,1.75-1.6Z"></path><path d="M224.11,142.58c2.73,3.27,4.16,21.36,1.88,24.75Q225,155,224.11,142.58Z"></path><path d="M235.69,73.24a8.85,8.85,0,0,1,2.06,0c6.13,1.58,12.23,3.22,18.35,4.81,1.38.36,2.78.65,4.19.9,2.16.39,3,1.42,2.52,3.1A103,103,0,0,0,235.6,74Z"></path><path d="M273.5,109.94c-1.06-1.92-2.19-3.81-3.11-5.79-.14-.3.57-1.25,1.08-1.5a1.63,1.63,0,0,1,1.55.48c.65,1.87,1.12,3.81,1.59,5.73.06.23-.22.54-.35.81Z"></path><path d="M234.76,81.19c.66,2,1.69,2.57,3.44,1.13l-1.06-2,.3-.46c.63.49,1.7.91,1.79,1.48.12.76-.31,2.14-.87,2.37a5.23,5.23,0,0,1-3.32,0c-.48-.14-.64-1.35-.94-2.07Z"></path></g></g></svg>